<svg version="1.0" xmlns="http://www.w3.org/2000/svg"
    width="50" height="50" viewBox="0 0 500.000000 500.000000"
    preserveAspectRatio="xMidYMid meet">

    <defs>
        <linearGradient id="gradiente1" x1="0%" y1="0%" x2="100%" y2="100%">
            <stop offset="0%" style="stop-color:#48c9b0;stop-opacity:1" />
            <stop offset="100%" style="stop-color:#148f77;stop-opacity:1" />
        </linearGradient>
    </defs>

    <g transform="translate(0.000000,500.000000) scale(0.100000,-0.100000)"
        fill="url(#gradiente1)" stroke="none">
        <path d="M2367 4875 c-31 -8 -72 -22 -90 -31 -30 -16 -349 -199 -702 -404 -82
        -48 -301 -174 -485 -280 -443 -255 -497 -287 -548 -328 -66 -54 -135 -166
        -161 -259 -21 -79 -21 -88 -21 -1069 0 -837 3 -999 15 -1052 36 -152 132 -272
        291 -363 55 -32 153 -88 219 -126 497 -288 1192 -689 1300 -750 155 -87 234
        -109 355 -100 134 11 85 -14 970 497 289 167 579 334 645 373 66 38 154 88
        195 111 134 74 233 195 274 335 14 48 16 170 16 1071 0 1109 2 1074 -58 1184
        -36 66 -110 146 -175 189 -47 31 -139 85 -517 302 -69 39 -186 107 -260 150
        -74 43 -223 129 -330 190 -107 62 -277 160 -378 218 -100 58 -208 115 -240
        128 -74 28 -231 35 -315 14z m209 -230 c27 -8 115 -52 194 -98 80 -46 237
        -137 350 -202 113 -65 237 -136 275 -158 39 -22 122 -70 185 -107 63 -37 180
        -104 260 -150 483 -277 514 -299 547 -393 17 -49 18 -112 18 -1037 0 -942 -1
        -987 -19 -1034 -10 -27 -34 -66 -54 -87 -41 -46 -8 -26 -742 -449 -331 -190
        -434 -250 -742 -429 -221 -129 -271 -151 -339 -151 -31 0 -74 6 -96 14 -47 16
        -19 1 -703 396 -1120 646 -1031 590 -1072 667 -49 92 -49 93 -46 1108 3 909 4
        952 22 1000 35 89 91 131 451 338 398 229 549 315 985 567 390 226 419 237
        526 205z"/>
        <path d="M1136 3762 c-3 -5 30 -38 74 -73 213 -172 418 -242 785 -269 159 -12
        208 -21 265 -50 53 -28 116 -98 147 -165 25 -54 28 -70 28 -170 0 -97 -3 -116
        -25 -160 -33 -67 -99 -129 -164 -154 -193 -72 -661 -44 -1025 63 -47 14 -88
        23 -93 20 -13 -8 -10 -1434 3 -1493 12 -60 71 -131 133 -163 56 -29 185 -37
        253 -14 66 22 121 70 149 130 l24 51 0 472 c0 272 4 474 9 477 25 16 39 -10
        60 -111 59 -281 218 -542 443 -727 113 -93 219 -156 355 -211 180 -74 265 -89
        488 -90 252 0 359 23 570 124 143 69 261 152 368 258 137 137 174 212 156 322
        -21 133 -123 216 -264 216 -88 0 -140 -28 -217 -116 -108 -123 -267 -222 -420
        -261 -110 -28 -307 -22 -413 12 -197 63 -340 173 -453 347 -44 69 -97 204 -89
        226 3 7 42 21 88 31 216 46 392 166 508 346 143 221 148 530 11 760 -101 170
        -251 283 -457 347 l-88 27 -601 4 c-370 2 -604 0 -608 -6z"/>
        <path d="M2865 3754 c-127 -27 -205 -47 -205 -54 0 -4 21 -20 47 -35 56 -34
        160 -138 208 -211 20 -29 50 -89 67 -133 l31 -79 80 -7 c278 -24 511 -166 643
        -392 54 -93 79 -120 138 -150 60 -31 158 -35 217 -10 56 23 114 82 139 139 18
        41 21 66 18 123 -3 64 -8 80 -52 156 -162 280 -416 489 -716 591 -151 51 -264
        68 -439 67 -86 -1 -165 -3 -176 -5z"/>
    </g>

    <style>
        path { fill: url(#gradiente1); }
    </style>
</svg>
